<?xml version="1.0" encoding="utf-8"?>
<!-- Generator: Adobe Illustrator 16.0.0, SVG Export Plug-In . SVG Version: 6.00 Build 0)  -->
<!DOCTYPE svg PUBLIC "-//W3C//DTD SVG 1.1//EN" "http://www.w3.org/Graphics/SVG/1.1/DTD/svg11.dtd">
<svg version="1.1" id="Layer_1" xmlns="http://www.w3.org/2000/svg" xmlns:xlink="http://www.w3.org/1999/xlink" x="0px" y="0px"
	 width="1024px" height="1024px" viewBox="0 0 1024 1024" enable-background="new 0 0 1024 1024" xml:space="preserve">
<g>
	<g id="XMLID_1_">
		<g>
			<path fill="#0685AB" d="M555.23,312.74c2.569,20.1,12.52,33.26,12.52,33.26s14.79,1.33,31.06-2.66
				c4.391-1.07,8.881-2.54,13.23-4.52c6.44-2.93,12.55-7.01,17.47-12.66c2.57-2.95,4.82-6.33,6.62-10.2
				c0.59-1.26,1.13-2.58,1.62-3.96c2.25-6.33,3.48-12.46,3.97-18.31c0.391-4.71,0.3-9.22-0.14-13.49
				c-2.36-23.2-14.83-39.2-14.83-39.2s-16.7,0.05-33.87,6.43c-4.399,1.64-8.84,3.69-13.04,6.27c-6.28,3.86-12.02,8.89-16.29,15.46
				c-1.88,2.88-3.479,6.07-4.7,9.58c-0.04,0.08-0.069,0.17-0.1,0.26c-2.47,7.15-3.68,13.98-4.02,20.37
				C554.48,304.09,554.69,308.57,555.23,312.74z M474.75,410c0,0-6.79,3.05-10,0c-3.5-3.33-4-8-4-8s27.47-53.98,89-55
				c0,0-15.15-23.8-13-52c0,0,1.66-40.04,43-59c0,0,5.33-3.83,39-10c0,0-16.4-32.57-14-51c0,0,1.96-32.35,18-52c0,0,4.72-3.72,10-1
				c0,0,6.46,3.08,5,9c0,0-4.02,5.15-7.77,11.38c-2.171,3.61-4.25,7.59-5.4,11.15c-0.4,1.22-0.69,2.38-0.83,3.47
				c0,0-3.11,11.31-2.17,17.19c0.05,0.28,0.11,0.55,0.17,0.81c0,0-0.31,5.87,1.16,14.72c1.54,9.26,5.02,21.79,12.84,34.28
				c0,0,21.23,2.42,34-3c0,0,0.25-0.04,0.73-0.14c1.989-0.43,7.84-1.87,15.02-5.31c5.55-2.66,11.9-6.52,17.88-12.05
				c3.11-2.88,6.12-6.21,8.87-10.05c1.23-1.71,2.4-3.53,3.5-5.45c0,0,4.83-7.32,6-10c0,0,3.97-2.32,9,0c0,0,5.39,3.16,4,10
				c0,0-9.34,18.04-18,25c0,0-14.17,14.24-27,19c0,0-8.42,4.92-44,8c0,0,12.05,23.2,12,41c0,0,0.66,27.34-9,43
				c0,0-14.32,21.73-30,28s-43,10-43,10s11.17,27.6,11,42c-0.17,14.25-7,37-7,37s-6,12.58-18,24c0,0-6.54,2.58-10-1
				c0,0-2.93-4.13-1-9c0,0,4.54-7.12,7.36-10.43c0.68-0.79,1.25-1.37,1.64-1.57c0,0,2.1-3.47,4.3-8.16c1.96-4.17,4-9.32,4.7-13.84
				c0.26-1.69,0.43-3.75,0.53-5.99c0.229-4.87,0.13-10.6-0.04-15.35c-0.2-5.49-0.49-9.66-0.49-9.66s-6.54-20.46-11-27
				c0,0-19.1-2.24-36.51,4.66c-4,1.58-7.92,3.65-11.49,6.34c-0.24,0.18-0.47,0.36-0.71,0.54c-6.04,4.58-11.04,8.76-15.03,12.32
				c-3.92,3.51-6.88,6.41-8.9,8.5c-2.26,2.33-3.36,3.64-3.36,3.64S478,404.25,474.75,410z"/>
			<path fill="#0685AB" d="M923.75,350c6.08,4.31,4,13,4,13c-4.72,11.02-19,15-19,15l10,5l-4,7l-20-9c-1.83-1.63,1-5,1-5
				s7.33-4.03,13-8c4.05-2.83,7-6,7-6c4.5-9.23-8-7-8-7l-3-3c-0.74-3.78,5-5,5-5S917.67,345.69,923.75,350z"/>
			<path fill="#0685AB" d="M893.75,372l-9,5c0,0-0.34-2.1-7-7s-15,3-15,3s-8.86,8.84-6,19s17,6,17,6l1,7c-1.54,3.38-10,4-10,4
				s-9.81-0.71-17-7s-2-24-2-24s9.32-22.22,28-21S893.75,372,893.75,372z"/>
			<path fill="#0189AB" d="M866.75,740c36.17,33.35,16,58,16,58s-24.14,34.48-61,2c-25.75-19.14-26.54-54.32-16-62
				C805.75,738,828.97,709.65,866.75,740z M866.75,791c0,0,8.48-19.84-13-38s-33-4-33-4c0,0.01-13.16,9.04,9,35
				C854.77,805.37,866.75,791,866.75,791z"/>
			<path fill="#0685AB" d="M848.75,351c0,0,0.03,5.49-2,9l-19,34l-11-6l18-32c0,0,0.79-5.4-3-7s-9,1-9,1l-20,33l-11-5l18-32
				c0,0,1.69-5.74-4-8s-9,1-9,1l-20,34l-10-6l25-45l9,4v3c0,0,7.37-1.56,15,2s7,11,7,11s11.24-3.99,17-1S848.75,351,848.75,351z"/>
			<path fill="#229A7D" d="M823.75,455c8.28,0,15,6.72,15,15s-6.72,15-15,15s-15-6.72-15-15S815.47,455,823.75,455z"/>
			<polygon fill="#209C7D" points="776.75,791 820.75,853 807.75,862 761.75,803 744.75,815 734.75,801 780.75,764 790.75,778 			
				"/>
			<path fill="#0685AB" d="M796.75,210c8.28,0,15,6.72,15,15s-6.72,15-15,15s-15-6.72-15-15S788.47,210,796.75,210z"/>
			<path fill="#EB553C" d="M777.75,428c1.63,6.44-4,7-4,7s-52.11,10.79-114,87c0,0-2.2,3.07-8,1c0,0-2.71-2.29-1-7
				c0,0,47.11-73.63,121-94C771.75,422,776.12,421.56,777.75,428z"/>
			<path fill="#F4B323" d="M777.75,490c0,0,1.73,3.25-5,6c0,0-31.57,5.78-58,20c0,0-3.51,1.15-6-2c0,0-1.75-4.03,1-7
				c0,0,17.86-17.98,61-25C770.75,482,776.83,482.79,777.75,490z"/>
			<polygon fill="#0685AB" points="775.75,322 771.75,330 748.75,319 752.75,311 			"/>
			<polygon fill="#0685AB" points="768.75,338 764.75,346 738.75,334 743.75,326 			"/>
			<polygon fill="#EE6830" points="720.75,830 756.75,898 741.75,906 704.75,838 687.75,847 679.75,832 726.75,805 736.75,821 			
				"/>
			<polygon fill="#0685AB" points="751.75,282 746.75,292 726.75,283 719.75,299 735.75,307 729.75,318 713.75,311 705.75,327 
				726.75,337 721.75,348 688.75,332 721.75,268 			"/>
			<path fill="#229A7D" d="M664.75,837l58,79l-16,7l-12-17l-22,12l2,16l-15,7l-12-97L664.75,837z M685.75,893l-19-26l4,35
				L685.75,893z"/>
			<path fill="#F4B323" d="M706.75,121c8.84,0,16,7.16,16,16s-7.16,16-16,16s-16-7.16-16-16S697.91,121,706.75,121z"/>
			<path fill="#EB553C" d="M629.98,142.38l82.27,51.07c-2.75,3.84-5.76,7.17-8.87,10.05l-78.8-49.97
				C625.73,149.97,627.81,145.99,629.98,142.38z"/>
			<path fill="#229A7D" d="M621.58,174.19l63.92,41.36c-7.18,3.44-13.03,4.88-15.02,5.31l-47.57-31.14
				c-1.47-8.85-1.16-14.72-1.16-14.72C621.69,174.74,621.63,174.47,621.58,174.19z"/>
			<path d="M681.45,592.07c0.2,1.29,0.3,2.6,0.3,3.93c0,28.65-73,41-73,41c0,48.18,19,133,19,133s-15.99,53-127,53s-130-52-130-52
				l-0.23-0.43c9.66-28.5,17.23-134.57,17.23-134.57c-72.29-16.33-72-42-72-42s18.87,41,189,41
				C659.09,635,679.07,598.79,681.45,592.07z M583.75,793c-7.83-26.43-14-136-14-136c-23.54,8.17-115,5-115,5c-0.03,0-0.05,0-0.08,0
				c-1.69-0.05-3.33-0.12-4.9-0.22c-0.06,0-0.12-0.011-0.19-0.011c-8.78-0.85-24.11-3.47-25.7-3.739
				c-0.01-0.011-0.02-0.011-0.04-0.011s-0.04-0.01-0.05-0.01c-0.03-0.01-0.04-0.01-0.04-0.01v0.01c1.33,31.03-14,133.99-14,133.99
				c1.11,0.84,2.26,1.65,3.43,2.42c0.01,0.01,0.02,0.01,0.03,0.021c1.74,1.31,4.12,2.659,6.77,3.96
				c10.56,5.529,20.95,8.38,21.72,8.59c0.03,0,0.05,0.01,0.05,0.01C550.29,826.97,583.75,793,583.75,793z"/>
			<path fill="#4D4D4E" d="M676.28,580.52c2.819,3.62,4.51,7.48,5.17,11.551c-2.38,6.72-22.36,42.93-176.7,42.93
				c-170.13,0-189-41-189-41c0-7.73,4.83-18.68,29.2-27.96c0.41-0.15,0.82-0.31,1.24-0.45c18.73-6.64,42.6-10.55,61.11-12.76
				c0.53-0.061,1.05-0.12,1.57-0.18c8.48-0.95,17.87-1.78,27.93-2.46l-0.17,1.029c-0.47,3-0.81,5.16-0.88,5.78c-0.33,2.8,1,5,1,5
				c1.24,2.44,6.15,4,12.17,5.05c2.89,0.8,5.96,1.42,9,1.88C381.69,572.6,383.53,586,383.53,586s-3.36,26,115,26s113-24,113-24
				s5.229-12.36-50.55-17.64c-1.4-3.16-4.561-5.36-8.23-5.36c-3.19,0-5.99,1.66-7.58,4.16c-12.42-0.73-27.16-1.16-44.64-1.16
				c-6.67,0-12.97,0.06-18.9,0.16h-0.01c-0.21,0.01-0.42,0.01-0.62,0.02c0.38-0.58,0.72-1.27,1.05-2.05c0-0.01,0-0.01,0-0.02
				c2.41-5.841,3.44-16.33,3.58-17.91c7.69-0.13,15.73-0.2,24.12-0.2c117.39,0,154.66,19.76,166.5,32.49
				C676.26,580.5,676.27,580.51,676.28,580.52z"/>
			<path fill="#F4B323" d="M658.75,383c13.25,0,24,10.75,24,24s-10.75,24-24,24s-24-10.75-24-24S645.5,383,658.75,383z"/>
			<polygon fill="#F5B122" points="621.75,854 644.75,945 627.75,949 613.75,890 602.75,934 575.75,899 583.75,958 566.75,961 
				553.75,867 571.75,864 595.75,898 606.75,856 			"/>
			<path fill="#F4B323" d="M641.58,280.2c0.439,4.27,0.53,8.78,0.14,13.49l-61.88-39.99c4.2-2.58,8.641-4.63,13.04-6.27
				L641.58,280.2z"/>
			<path fill="#EB553C" d="M563.55,269.16l72.58,46.8c-1.8,3.87-4.05,7.25-6.62,10.2l-70.66-47.42
				C560.07,275.23,561.67,272.04,563.55,269.16z"/>
			<circle fill="#0685AB" cx="602.75" cy="494" r="14"/>
			<path fill="#229A7D" d="M554.73,299.37l57.31,39.45c-4.35,1.98-8.84,3.45-13.23,4.52l-43.579-30.6
				C554.69,308.57,554.48,304.09,554.73,299.37z"/>
			<path d="M560.98,570.36C616.76,575.64,611.53,588,611.53,588s5.359,24-113,24s-115-26-115-26s-1.84-13.4,74.39-17.07
				c8.17,1.25,16.12,1.41,19.68,1.181c0.4,0.02,0.77-0.021,1.11-0.11c0.02,0,0.03,0,0.04,0c0.22-0.03,0.44-0.1,0.65-0.21
				c0.02-0.01,0.04-0.021,0.07-0.03c0.55-0.3,1.06-0.85,1.53-1.58c0.2-0.01,0.41-0.01,0.62-0.02h0.01
				c5.93-0.101,12.23-0.16,18.9-0.16c17.48,0,32.22,0.43,44.64,1.16c-0.9,1.399-1.42,3.06-1.42,4.84c0,4.97,4.03,9,9,9s9-4.03,9-9
				C561.75,572.71,561.47,571.47,560.98,570.36z M513.75,590c0-3.87-3.13-7-7-7s-7,3.13-7,7s3.13,7,7,7S513.75,593.87,513.75,590z"
				/>
			<path fill="#4D4D4E" d="M569.75,657c0,0,6.17,109.57,14,136c0,0-33.46,33.97-142,14c2.41-8.33,4.74-28.85,6.75-51.92
				c3.11-27.94,6.15-62.79,6.25-93.05c0-0.011,0-0.021,0-0.03C454.75,662,546.21,665.17,569.75,657z"/>
			<path fill="#F4B323" d="M569.24,399.66c0.17,4.75,0.27,10.48,0.04,15.35l-60.24-40.47c0.24-0.18,0.47-0.36,0.71-0.54
				c3.57-2.69,7.49-4.76,11.49-6.34L569.24,399.66z"/>
			<path fill="#EB553C" d="M494.01,386.86l70.04,47.98c-2.2,4.69-4.3,8.16-4.3,8.16c-0.39,0.2-0.96,0.78-1.64,1.57l-72.331-48.68
				l-0.67-0.53C487.13,393.27,490.09,390.37,494.01,386.86z"/>
			<path fill="#0685AB" d="M560.75,106c0,0,3.58,1.18,2,7s-10,39-10,39s-1.74,4.54-7,3s-40-11-40-11s-3.02-1.05-2-6s11-41,11-41
				s0.87-3.25,4-2L560.75,106z"/>
			<path fill="#EEAA1F" d="M560.98,570.36c0.489,1.109,0.77,2.35,0.77,3.64c0,4.97-4.03,9-9,9s-9-4.03-9-9
				c0-1.78,0.52-3.44,1.42-4.84C550.92,569.5,556.18,569.9,560.98,570.36z"/>
			<path fill="#EEAA1F" d="M552.75,565c3.67,0,6.83,2.2,8.23,5.36c-4.801-0.46-10.061-0.86-15.811-1.2
				C546.76,566.66,549.56,565,552.75,565z"/>
			<path fill="#EB5336" d="M494.75,865c0,0,33.41-0.28,32,46s-36,51-36,51s-37.54,0.28-34-47S494.75,865,494.75,865z M509.75,912
				c0.75-30.28-16-29-16-29c-5.5,0-22.77,6.41-21,35s18,28,18,28S509,942.28,509.75,912z"/>
			<path fill="#E95F40" d="M506.75,583c3.87,0,7,3.13,7,7s-3.13,7-7,7s-7-3.13-7-7S502.88,583,506.75,583z"/>
			<path fill="#F4B323" d="M510.75,194c0,1.98,0,26,0,26s-0.59,3-3,3s-28,0-28,0s-2-0.89-2-3s0-26,0-26s0.27-2,2-2h28
				C507.75,192,510.75,192.02,510.75,194z"/>
			<path fill="#229A7D" d="M508.75,487c0,0,2.06,3.94,0,6s-19,19-19,19s-5.53,2.47-8,0c-2.47-2.47-19-19-19-19s-1.93-2.68,0-6l19-20
				c0,0,5.33-1.67,8,1S508.75,487,508.75,487z"/>
			<path fill="#2894B4" d="M485.63,548.2c-0.14,1.58-1.17,12.069-3.58,17.91c0,0.01,0,0.01,0,0.02c-0.33,0.78-0.67,1.47-1.05,2.05
				c-0.47,0.73-0.98,1.28-1.53,1.58c-0.03,0.01-0.05,0.021-0.07,0.03c-0.21,0.11-0.43,0.18-0.65,0.21c-0.01,0-0.02,0-0.04,0
				c-0.34,0.09-0.71,0.13-1.11,0.11c-3.56,0.229-11.51,0.069-19.68-1.181c-3.04-0.46-6.11-1.08-9-1.88
				c-6.02-1.05-10.93-2.609-12.17-5.05c0,0-1.33-2.2-1-5c0.07-0.62,0.41-2.78,0.88-5.78l0.17-1.029
				c1.73-10.771,4.95-30.19,4.95-30.19s1.67-4.95,5-4l38,7c0,0,3.43-0.03,3,5C487.54,530.37,486.98,539.34,485.63,548.2z"/>
			<path fill="#0685AB" d="M483.75,330c0,0,0.23,3-3,3s-37,0-37,0s-3-0.37-3-3s0-38,0-38s0.49-3,3-3h36c0,0,4-0.62,4,3
				S483.75,330,483.75,330z"/>
			<path fill="#EB553C" d="M459.75,127c0,0,2.43,6-2,6s-32,0-32,0s-5.33-1.71-3-6s15-25,15-25s3.92-4.75,7,0L459.75,127z"/>
			<path fill="#9B9A9A" d="M454.75,662c0,0.01,0,0.02,0,0.03c-0.01,0.069-0.01,0.25-0.03,0.51c0,0.07,0,0.15-0.01,0.24
				c-0.01,0.21-0.02,0.47-0.04,0.77c-0.02,0.29-0.03,0.63-0.05,1c-0.01,0.05-0.01,0.11-0.01,0.17c-0.01,0.29-0.03,0.59-0.05,0.92
				c-0.02,0.301-0.03,0.62-0.05,0.96c-0.01,0.2-0.02,0.4-0.03,0.61c-0.61,11.04-2.13,38.07-4.21,65.76
				c-0.01,0.181-0.03,0.351-0.04,0.53c-0.08,1.05-0.16,2.1-0.24,3.15c-0.07,0.93-0.14,1.869-0.22,2.8
				c-0.53,6.52-1.1,13.06-1.7,19.42c0,0.01,0,0.01,0,0.02c-2.99,26.23-5.93,45.591-6.28,47.88c-0.01,0.061-0.02,0.11-0.03,0.171
				c-0.01,0.04-0.01,0.06-0.01,0.06s-0.02-0.01-0.05-0.01c-0.87-0.29-12.81-4.2-21.72-8.59c-2.28-1.19-4.57-2.511-6.77-3.96
				c-0.01-0.011-0.02-0.011-0.03-0.021c-1.1-0.83-1.94-1.64-2.43-2.42c0,0,15.36-110.58,13-133.99V658c0,0,0.01,0,0.04,0.01
				c0.01,0,0.03,0.01,0.05,0.01s0.03,0,0.04,0.011c1.2,0.33,10.98,2.88,25.7,3.739c0.07,0,0.13,0.011,0.19,0.011
				c2.14,0.21,3.88,0.31,4.9,0.22C454.7,662,454.72,662,454.75,662z"/>
			<path fill="#9B9A9A" d="M454.75,662.03c-0.1,30.26-3.14,65.109-6.25,93.05c0.44-5.12,0.87-10.37,1.27-15.63
				c0.08-0.931,0.15-1.87,0.22-2.8c0.08-1.051,0.16-2.101,0.24-3.15c0.01-0.18,0.03-0.35,0.04-0.53
				c2.17-28.02,3.64-54.79,4.21-65.76c0.01-0.21,0.02-0.41,0.03-0.61c0.02-0.34,0.04-0.659,0.05-0.96c0.02-0.33,0.04-0.63,0.05-0.92
				c0-0.06,0-0.12,0.01-0.17c0.02-0.37,0.04-0.7,0.05-1c0.02-0.3,0.03-0.56,0.04-0.77c0.01-0.09,0.01-0.17,0.01-0.24
				C454.74,662.28,454.74,662.1,454.75,662.03z"/>
			<path fill="#9B9A9A" d="M454.67,662c-1.02,0.09-2.76-0.01-4.9-0.22C451.34,661.88,452.98,661.95,454.67,662z"/>
			<path fill="#0889A9" d="M435.75,861c0,0,21.12,8.94,16,31s-20,26-20,26l8,39l-17-4l-8-34l-8-2l-8,31l-16-5l23-91L435.75,861z
				 M436.75,891c0.8-17.99-19-20-19-20l-7,29C410.75,900,435.95,908.99,436.75,891z"/>
			<path fill="#9B9A9A" d="M449.77,739.45c-0.4,5.26-0.83,10.51-1.27,15.63c-0.14,1.28-0.29,2.54-0.43,3.79
				C448.67,752.51,449.24,745.97,449.77,739.45z"/>
			<path fill="#4D4D4E" d="M448.5,755.08c-2.01,23.07-4.34,43.59-6.75,51.92c0,0,0-0.02,0.01-0.06c0.01-0.061,0.02-0.11,0.03-0.171
				c2.36-10.989,4.48-28.64,6.28-47.88c0-0.01,0-0.01,0-0.02C448.21,757.62,448.36,756.36,448.5,755.08z"/>
			<path fill="#9B9A9A" d="M448.07,758.89c-1.8,19.24-3.92,36.891-6.28,47.88C442.14,804.48,445.08,785.12,448.07,758.89z"/>
			<path fill="#229A7D" d="M312.72,173.28c0.06,6.32,0.62,13.16,1.68,20.32c2.77-3.14,5.68-6.25,8.73-9.33
				c3.28-3.32,6.61-6.48,9.96-9.47C325.9,173.8,319.05,173.29,312.72,173.28z M312.79,167.39c8.18,0.11,16.98,0.89,26.16,2.36
				c6.93-5.76,13.89-10.79,20.67-14.99c-10.52-15.72-22.12-24.35-31.56-21.64C318.75,135.79,313.5,148.91,312.79,167.39z
				 M410.42,194.69c21.03,12.65,33.01,27.5,29.77,39.91c-3.22,12.35-20.75,19.45-45.09,20.29c-0.24,24.35-6.91,42.07-19.18,45.58
				c-12.43,3.56-27.73-8.28-40.97-29.32c-21.72,12.1-40.83,15.14-50.02,6.04c-9.12-9.03-6.38-27.92,5.26-49.54
				c-21.04-12.65-33.03-27.51-29.79-39.92c3.22-12.35,20.76-19.45,45.1-20.29c0.24-24.34,6.92-42.05,19.19-45.57
				c12.43-3.56,27.73,8.28,40.97,29.33c21.72-12.09,40.82-15.13,50.01-6.03C424.79,154.19,422.06,173.08,410.42,194.69z
				 M427.81,232.06c2.59-9.31-5.8-20.62-21.12-30.87c-4.09,6.77-9,13.73-14.64,20.67c1.65,8.99,2.61,17.63,2.94,25.68
				C412.76,246.49,425.28,241.17,427.81,232.06z M403.48,190.77c8.33-16.78,10.03-31,3.05-37.83c-6.96-6.8-21.05-4.82-37.56,3.81
				c4.06,7.11,7.86,15.09,11.27,23.74C388.66,183.57,396.47,187.04,403.48,190.77z M390.07,212.32c3.83-5.16,7.19-10.28,10.03-15.23
				c-5.07-2.94-10.71-5.75-16.8-8.35c1.34,3.86,2.6,7.82,3.76,11.88C388.19,204.56,389.2,208.46,390.07,212.32z M387.78,247.72
				c-0.06-5.95-0.56-12.35-1.5-19.05c-2.79,3.17-5.73,6.31-8.81,9.42c-2.86,2.89-5.75,5.66-8.67,8.3
				C375.48,247.27,381.86,247.71,387.78,247.72z M372.44,287.88c9.09-2.61,14.31-15.16,15.22-32.94c-8.13-0.12-16.87-0.9-25.98-2.36
				c-6.75,5.61-13.52,10.52-20.13,14.66C351.89,282.33,363.2,290.53,372.44,287.88z M384.7,219.21c-1.09-5.66-2.48-11.49-4.17-17.39
				c-1.63-5.68-3.46-11.15-5.44-16.36c-5.22-1.94-10.71-3.73-16.41-5.31c-6.01-1.67-11.93-3.03-17.69-4.08
				c-4.45,3.8-8.9,7.95-13.26,12.41c-4.29,4.39-8.28,8.85-11.93,13.31c1.09,5.66,2.48,11.49,4.17,17.39
				c1.63,5.68,3.46,11.15,5.44,16.36c5.22,1.94,10.71,3.73,16.41,5.31c6.01,1.67,11.93,3.03,17.69,4.08
				c4.45-3.8,8.9-7.95,13.26-12.41C377.06,228.13,381.05,223.67,384.7,219.21z M371.9,177.63c-2.78-6.39-5.78-12.27-8.91-17.54
				c-5.22,3.12-10.61,6.84-16.04,11.09c4.28,0.85,8.62,1.84,13,2.98C364.03,175.22,368.02,176.38,371.9,177.63z M352.21,250.85
				c-3.81-0.77-7.67-1.67-11.56-2.68c-3.88-1.01-7.68-2.11-11.38-3.29c2.59,5.81,5.36,11.18,8.24,16.03
				C342.3,258.05,347.24,254.68,352.21,250.85z M331.03,264.52c-3.83-6.84-7.44-14.46-10.68-22.68c-8.66-3.17-16.66-6.75-23.83-10.6
				c-7.9,16.34-9.39,30.13-2.55,36.82C300.86,274.79,314.74,272.92,331.03,264.52z M316.77,232.07c-1.14-3.37-2.22-6.83-3.23-10.35
				c-1.24-4.32-2.33-8.61-3.27-12.83c-3.76,5.09-7.07,10.13-9.87,15.02C305.35,226.78,310.84,229.52,316.77,232.07z M308.55,200.5
				c-1.74-9.5-2.72-18.61-2.98-27.04c-17.8,1.04-30.35,6.36-32.88,15.48c-2.62,9.45,6.05,20.94,21.78,31.31
				C298.45,213.77,303.17,207.13,308.55,200.5z"/>
			<path fill="#9B9A9A" d="M441.7,806.99c-0.77-0.21-11.16-3.061-21.72-8.59C428.89,802.79,440.83,806.7,441.7,806.99z"/>
			<path fill="#9B9A9A" d="M423.88,658.03c1.59,0.27,16.92,2.89,25.7,3.739C434.86,660.91,425.08,658.36,423.88,658.03z"/>
			<path fill="#EB553C" d="M412.75,434c8.84,0,16,7.16,16,16s-7.16,16-16,16s-16-7.16-16-16S403.91,434,412.75,434z"/>
			<path fill="#9B9A9A" d="M409.75,792c0,0,15.33-102.96,14-133.99c2.36,23.41-13,133.99-13,133.99c0.49,0.78,1.33,1.59,2.43,2.42
				C412.01,793.65,410.86,792.84,409.75,792z"/>
			<path fill="#9B9A9A" d="M413.21,794.44c2.2,1.449,4.49,2.77,6.77,3.96C417.33,797.1,414.95,795.75,413.21,794.44z"/>
			<path fill="#F4B323" d="M404.75,347c0,2.22,0,39,0,39s-0.06,3-3,3s-38,0-38,0s-4-0.06-4-3s0-39,0-39s0.36-3,5-3h37
				C401.75,344,404.75,344.78,404.75,347z"/>
			<polygon fill="#4FA65E" points="392.75,849 387.75,865 362.75,857 354.75,876 375.75,885 370.75,900 348.75,892 340.75,912 
				367.75,922 362.75,939 317.75,921 352.75,834 			"/>
			<path fill="#0685AB" d="M391.75,519c0,4.87-2,6-2,6s-26.69,0-30,0s-3-5-3-5l16-26c2.26-1.92,5,0,5,0S391.75,514.13,391.75,519z"
				/>
			<circle fill="#229A7D" cx="350.75" cy="210" r="14"/>
			<path fill="#0685AB" d="M345.75,437c0,0,13.7,21.37-5,31l-93,34c0,0-23.5,6.58-31-19l12-96l-17-52c0,0-4.73,3.04-10-3
				c0,0-3.26-5.52,4-8l54-20c0,0,5.28-1.06,8,6s-5,8-5,8l17,51L345.75,437z M336.75,457c4.44-0.72,2-14,2-14l-32-31l-38-40l-17-51
				c0,0-27.48,10.08-29.84,10.94c-0.1,0.04-0.16,0.06-0.16,0.06l18,50l-6,47l-6,53c2.93,10.04,15,9,15,9L336.75,457z"/>
			<polygon fill="#0888A8" points="343.75,831 273.75,899 258.75,891 283.75,796 298.75,804 279.75,871 329.75,822 			"/>
			<path fill="#229A7D" d="M338.75,443c0,0,2.44,13.28-2,14l-94,34c0,0-12.07,1.04-15-9l6-53l73-17L338.75,443z M301.75,448
				c0-3.31-2.69-6-6-6s-6,2.69-6,6s2.69,6,6,6S301.75,451.31,301.75,448z M267.75,448c0-4.42-3.58-8-8-8s-8,3.58-8,8s3.58,8,8,8
				S267.75,452.42,267.75,448z"/>
			<circle fill="#229A7D" cx="262.75" cy="400" r="5"/>
			<path fill="#F4B323" d="M246.75,200c0,0,2.34,2.59,0,5s-25,28-25,28s-4.05,2.25-7-1s-24-28-24-28s-1.6-2.27,1-5s25-27,25-27
				s2.72-2.28,5,0L246.75,200z"/>
			<polygon fill="#F26335" points="245.75,760 193.75,817 215.75,837 203.75,850 169.75,818 232.75,748 			"/>
			<polygon fill="#E7553C" points="210.75,722 222.75,735 150.75,797 138.75,784 			"/>
			<path fill="#EB553C" d="M212.75,268c0,0,7.74-1.29,6,5s-16,40-16,40s-1.49,5.06-6,1s-28-29-28-29s-4.63-5.37,1-7L212.75,268z"/>
			<path fill="#229A7D" d="M150.75,373c8.84,0,16,7.16,16,16s-7.16,16-16,16s-16-7.16-16-16S141.91,373,150.75,373z"/>
		</g>
		<g>
		</g>
	</g>
</g>
<path fill="none" d="M233.75,429v1V429z"/>
</svg>
